<mxfile host="app.diagrams.net" modified="2024-05-26T17:35:35.964Z" agent="Mozilla/5.0 (Windows NT 10.0; Win64; x64) AppleWebKit/537.36 (KHTML, like Gecko) Chrome/124.0.0.0 Safari/537.36" etag="Vfs-0V9s4o45cRV1qQ46" version="24.3.1" type="github" pages="2">
  <diagram name="Macro" id="V7DzdgLzhIBd9XV0cjSh">
    <mxGraphModel dx="1591" dy="797" grid="1" gridSize="10" guides="1" tooltips="1" connect="1" arrows="1" fold="1" page="1" pageScale="1" pageWidth="827" pageHeight="1169" math="0" shadow="0">
      <root>
        <mxCell id="0" />
        <mxCell id="1" parent="0" />
        <mxCell id="6OH7W8XfdVQtPzr5UYNn-14" value="Connectors" style="rounded=1;whiteSpace=wrap;html=1;labelPosition=center;verticalLabelPosition=top;align=center;verticalAlign=bottom;fontStyle=1;fillColor=#d0cee2;strokeColor=#56517e;" vertex="1" parent="1">
          <mxGeometry x="800" y="50" width="180" height="320" as="geometry" />
        </mxCell>
        <mxCell id="6OH7W8XfdVQtPzr5UYNn-1" value="application_1" style="aspect=fixed;sketch=0;html=1;dashed=0;whitespace=wrap;fillColor=#2875E2;strokeColor=#ffffff;points=[[0.005,0.63,0],[0.1,0.2,0],[0.9,0.2,0],[0.5,0,0],[0.995,0.63,0],[0.72,0.99,0],[0.5,1,0],[0.28,0.99,0]];shape=mxgraph.kubernetes.icon2;prIcon=api;labelPosition=center;verticalLabelPosition=bottom;align=center;verticalAlign=top;fontStyle=1" vertex="1" parent="1">
          <mxGeometry x="130" y="80" width="50" height="48" as="geometry" />
        </mxCell>
        <mxCell id="6OH7W8XfdVQtPzr5UYNn-4" style="rounded=0;orthogonalLoop=1;jettySize=auto;html=1;exitX=1;exitY=0.5;exitDx=0;exitDy=0;exitPerimeter=0;entryX=0.005;entryY=0.63;entryDx=0;entryDy=0;entryPerimeter=0;startArrow=classic;startFill=1;endArrow=none;endFill=0;flowAnimation=1;" edge="1" parent="1" source="6OH7W8XfdVQtPzr5UYNn-2" target="6OH7W8XfdVQtPzr5UYNn-5">
          <mxGeometry relative="1" as="geometry">
            <mxPoint x="570" y="190" as="targetPoint" />
          </mxGeometry>
        </mxCell>
        <mxCell id="6OH7W8XfdVQtPzr5UYNn-2" value="application_1-publish-exception" style="sketch=0;points=[[0,0,0],[0.25,0,0],[0.5,0,0],[0.75,0,0],[1,0,0],[0,1,0],[0.25,1,0],[0.5,1,0],[0.75,1,0],[1,1,0],[0,0.25,0],[0,0.5,0],[0,0.75,0],[1,0.25,0],[1,0.5,0],[1,0.75,0]];outlineConnect=0;fontColor=#232F3E;fillColor=#8C4FFF;strokeColor=#ffffff;dashed=0;verticalLabelPosition=bottom;verticalAlign=top;align=center;html=1;fontSize=12;fontStyle=1;aspect=fixed;shape=mxgraph.aws4.resourceIcon;resIcon=mxgraph.aws4.managed_streaming_for_kafka;" vertex="1" parent="1">
          <mxGeometry x="336" y="70" width="78" height="78" as="geometry" />
        </mxCell>
        <mxCell id="6OH7W8XfdVQtPzr5UYNn-3" style="rounded=0;orthogonalLoop=1;jettySize=auto;html=1;exitX=0.995;exitY=0.63;exitDx=0;exitDy=0;exitPerimeter=0;entryX=0;entryY=0.5;entryDx=0;entryDy=0;entryPerimeter=0;flowAnimation=1;" edge="1" parent="1" source="6OH7W8XfdVQtPzr5UYNn-1" target="6OH7W8XfdVQtPzr5UYNn-2">
          <mxGeometry relative="1" as="geometry">
            <mxPoint x="320" y="184" as="targetPoint" />
          </mxGeometry>
        </mxCell>
        <mxCell id="6OH7W8XfdVQtPzr5UYNn-19" style="edgeStyle=orthogonalEdgeStyle;rounded=0;orthogonalLoop=1;jettySize=auto;html=1;exitX=0.995;exitY=0.63;exitDx=0;exitDy=0;exitPerimeter=0;entryX=0;entryY=0.5;entryDx=0;entryDy=0;flowAnimation=1;" edge="1" parent="1" source="6OH7W8XfdVQtPzr5UYNn-5" target="6OH7W8XfdVQtPzr5UYNn-14">
          <mxGeometry relative="1" as="geometry" />
        </mxCell>
        <UserObject label="publish-exception-manager" link="data:page/id,mOQPgDvz9a8DPxQpEeiZ" id="6OH7W8XfdVQtPzr5UYNn-5">
          <mxCell style="aspect=fixed;sketch=0;html=1;dashed=0;whitespace=wrap;fillColor=#2875E2;strokeColor=#ffffff;points=[[0.005,0.63,0],[0.1,0.2,0],[0.9,0.2,0],[0.5,0,0],[0.995,0.63,0],[0.72,0.99,0],[0.5,1,0],[0.28,0.99,0]];shape=mxgraph.kubernetes.icon2;prIcon=api;labelPosition=center;verticalLabelPosition=bottom;align=center;verticalAlign=top;fontStyle=1" vertex="1" parent="1">
            <mxGeometry x="580" y="180" width="50" height="48" as="geometry" />
          </mxCell>
        </UserObject>
        <mxCell id="6OH7W8XfdVQtPzr5UYNn-8" value="application_2" style="aspect=fixed;sketch=0;html=1;dashed=0;whitespace=wrap;fillColor=#2875E2;strokeColor=#ffffff;points=[[0.005,0.63,0],[0.1,0.2,0],[0.9,0.2,0],[0.5,0,0],[0.995,0.63,0],[0.72,0.99,0],[0.5,1,0],[0.28,0.99,0]];shape=mxgraph.kubernetes.icon2;prIcon=api;labelPosition=center;verticalLabelPosition=bottom;align=center;verticalAlign=top;fontStyle=1" vertex="1" parent="1">
          <mxGeometry x="130" y="260" width="50" height="48" as="geometry" />
        </mxCell>
        <mxCell id="6OH7W8XfdVQtPzr5UYNn-9" value="application_2-publish-exception" style="sketch=0;points=[[0,0,0],[0.25,0,0],[0.5,0,0],[0.75,0,0],[1,0,0],[0,1,0],[0.25,1,0],[0.5,1,0],[0.75,1,0],[1,1,0],[0,0.25,0],[0,0.5,0],[0,0.75,0],[1,0.25,0],[1,0.5,0],[1,0.75,0]];outlineConnect=0;fontColor=#232F3E;fillColor=#8C4FFF;strokeColor=#ffffff;dashed=0;verticalLabelPosition=bottom;verticalAlign=top;align=center;html=1;fontSize=12;fontStyle=1;aspect=fixed;shape=mxgraph.aws4.resourceIcon;resIcon=mxgraph.aws4.managed_streaming_for_kafka;" vertex="1" parent="1">
          <mxGeometry x="336" y="250" width="78" height="78" as="geometry" />
        </mxCell>
        <mxCell id="6OH7W8XfdVQtPzr5UYNn-10" style="rounded=0;orthogonalLoop=1;jettySize=auto;html=1;exitX=0.995;exitY=0.63;exitDx=0;exitDy=0;exitPerimeter=0;entryX=0;entryY=0.5;entryDx=0;entryDy=0;entryPerimeter=0;flowAnimation=1;" edge="1" parent="1" source="6OH7W8XfdVQtPzr5UYNn-8" target="6OH7W8XfdVQtPzr5UYNn-9">
          <mxGeometry relative="1" as="geometry">
            <mxPoint x="320" y="364" as="targetPoint" />
          </mxGeometry>
        </mxCell>
        <mxCell id="6OH7W8XfdVQtPzr5UYNn-11" style="rounded=0;orthogonalLoop=1;jettySize=auto;html=1;entryX=0.005;entryY=0.63;entryDx=0;entryDy=0;entryPerimeter=0;exitX=1;exitY=0.5;exitDx=0;exitDy=0;exitPerimeter=0;startArrow=classic;startFill=1;endArrow=none;endFill=0;flowAnimation=1;" edge="1" parent="1" source="6OH7W8XfdVQtPzr5UYNn-9" target="6OH7W8XfdVQtPzr5UYNn-5">
          <mxGeometry relative="1" as="geometry" />
        </mxCell>
        <mxCell id="6OH7W8XfdVQtPzr5UYNn-12" value="E-mail" style="sketch=0;points=[[0,0,0],[0.25,0,0],[0.5,0,0],[0.75,0,0],[1,0,0],[0,1,0],[0.25,1,0],[0.5,1,0],[0.75,1,0],[1,1,0],[0,0.25,0],[0,0.5,0],[0,0.75,0],[1,0.25,0],[1,0.5,0],[1,0.75,0]];outlineConnect=0;fontColor=#232F3E;gradientColor=#4D72F3;gradientDirection=north;fillColor=#3334B9;strokeColor=#ffffff;dashed=0;verticalLabelPosition=bottom;verticalAlign=top;align=center;html=1;fontSize=12;fontStyle=1;aspect=fixed;shape=mxgraph.aws4.resourceIcon;resIcon=mxgraph.aws4.simple_email_service;labelBackgroundColor=none;" vertex="1" parent="1">
          <mxGeometry x="865" y="70" width="50" height="50" as="geometry" />
        </mxCell>
        <mxCell id="6OH7W8XfdVQtPzr5UYNn-16" value="Slack" style="shape=image;html=1;verticalAlign=top;verticalLabelPosition=bottom;labelBackgroundColor=none;imageAspect=0;aspect=fixed;image=https://cdn2.iconfinder.com/data/icons/social-media-2285/512/1_Slack_colored_svg-128.png;fontStyle=1" vertex="1" parent="1">
          <mxGeometry x="865" y="170" width="50" height="50" as="geometry" />
        </mxCell>
        <mxCell id="6OH7W8XfdVQtPzr5UYNn-18" value="Whatsapp" style="dashed=0;outlineConnect=0;html=1;align=center;labelPosition=center;verticalLabelPosition=bottom;verticalAlign=top;shape=mxgraph.weblogos.whatsapp;fillColor=#00E676;strokeColor=#dddddd;labelBackgroundColor=none;fontStyle=1" vertex="1" parent="1">
          <mxGeometry x="865" y="268" width="47.2" height="50" as="geometry" />
        </mxCell>
      </root>
    </mxGraphModel>
  </diagram>
  <diagram id="mOQPgDvz9a8DPxQpEeiZ" name="Manager">
    <mxGraphModel dx="1857" dy="930" grid="1" gridSize="10" guides="1" tooltips="1" connect="1" arrows="1" fold="1" page="1" pageScale="1" pageWidth="827" pageHeight="1169" math="0" shadow="0">
      <root>
        <mxCell id="0" />
        <mxCell id="1" parent="0" />
        <mxCell id="5sOA5gd1idPIIyq4ogjT-21" value="Exceptions topics" style="rounded=1;whiteSpace=wrap;html=1;fontFamily=Helvetica;fontSize=15;labelBackgroundColor=none;fillColor=#e1d5e7;strokeColor=#9673a6;labelPosition=center;verticalLabelPosition=top;align=center;verticalAlign=bottom;fontStyle=1" vertex="1" parent="1">
          <mxGeometry x="140" y="527.6" width="200" height="256.8" as="geometry" />
        </mxCell>
        <mxCell id="v8UnaKEYy9WV-4e8yAo4-5" style="edgeStyle=orthogonalEdgeStyle;rounded=0;orthogonalLoop=1;jettySize=auto;html=1;exitX=0.995;exitY=0.63;exitDx=0;exitDy=0;exitPerimeter=0;entryX=0;entryY=0.5;entryDx=0;entryDy=0;strokeColor=default;align=center;verticalAlign=middle;fontFamily=Helvetica;fontSize=11;fontColor=default;labelBackgroundColor=default;endArrow=classic;flowAnimation=1;" edge="1" parent="1" source="gi6lmelZhgDVMPiIawq--1" target="v8UnaKEYy9WV-4e8yAo4-1">
          <mxGeometry relative="1" as="geometry" />
        </mxCell>
        <UserObject label="publish-exception-manager" id="gi6lmelZhgDVMPiIawq--1">
          <mxCell style="aspect=fixed;sketch=0;html=1;dashed=0;whitespace=wrap;fillColor=#2875E2;strokeColor=#ffffff;points=[[0.005,0.63,0],[0.1,0.2,0],[0.9,0.2,0],[0.5,0,0],[0.995,0.63,0],[0.72,0.99,0],[0.5,1,0],[0.28,0.99,0]];shape=mxgraph.kubernetes.icon2;prIcon=api;labelPosition=center;verticalLabelPosition=bottom;align=center;verticalAlign=top;fontStyle=1;fontSize=15;" vertex="1" parent="1">
            <mxGeometry x="570" y="589.2" width="110" height="105.6" as="geometry" />
          </mxCell>
        </UserObject>
        <mxCell id="v8UnaKEYy9WV-4e8yAo4-1" value="Connectors" style="rounded=1;whiteSpace=wrap;html=1;labelPosition=center;verticalLabelPosition=top;align=center;verticalAlign=bottom;fontStyle=1;fillColor=#d0cee2;strokeColor=#56517e;fontSize=15;" vertex="1" parent="1">
          <mxGeometry x="900" y="496" width="180" height="320" as="geometry" />
        </mxCell>
        <mxCell id="v8UnaKEYy9WV-4e8yAo4-2" value="E-mail" style="sketch=0;points=[[0,0,0],[0.25,0,0],[0.5,0,0],[0.75,0,0],[1,0,0],[0,1,0],[0.25,1,0],[0.5,1,0],[0.75,1,0],[1,1,0],[0,0.25,0],[0,0.5,0],[0,0.75,0],[1,0.25,0],[1,0.5,0],[1,0.75,0]];outlineConnect=0;fontColor=#232F3E;gradientColor=#4D72F3;gradientDirection=north;fillColor=#3334B9;strokeColor=#ffffff;dashed=0;verticalLabelPosition=bottom;verticalAlign=top;align=center;html=1;fontSize=12;fontStyle=1;aspect=fixed;shape=mxgraph.aws4.resourceIcon;resIcon=mxgraph.aws4.simple_email_service;labelBackgroundColor=none;" vertex="1" parent="1">
          <mxGeometry x="965" y="516" width="50" height="50" as="geometry" />
        </mxCell>
        <mxCell id="v8UnaKEYy9WV-4e8yAo4-3" value="Slack" style="shape=image;html=1;verticalAlign=top;verticalLabelPosition=bottom;labelBackgroundColor=none;imageAspect=0;aspect=fixed;image=https://cdn2.iconfinder.com/data/icons/social-media-2285/512/1_Slack_colored_svg-128.png;fontStyle=1" vertex="1" parent="1">
          <mxGeometry x="965" y="616" width="50" height="50" as="geometry" />
        </mxCell>
        <mxCell id="v8UnaKEYy9WV-4e8yAo4-4" value="Whatsapp" style="dashed=0;outlineConnect=0;html=1;align=center;labelPosition=center;verticalLabelPosition=bottom;verticalAlign=top;shape=mxgraph.weblogos.whatsapp;fillColor=#00E676;strokeColor=#dddddd;labelBackgroundColor=none;fontStyle=1" vertex="1" parent="1">
          <mxGeometry x="965" y="714" width="47.2" height="50" as="geometry" />
        </mxCell>
        <mxCell id="v8UnaKEYy9WV-4e8yAo4-6" style="edgeStyle=none;rounded=0;orthogonalLoop=1;jettySize=auto;html=1;exitX=0.5;exitY=1;exitDx=0;exitDy=0;entryX=0.5;entryY=0;entryDx=0;entryDy=0;entryPerimeter=0;strokeColor=default;align=center;verticalAlign=middle;fontFamily=Helvetica;fontSize=11;fontColor=default;labelBackgroundColor=default;endArrow=none;startArrow=classic;startFill=1;endFill=0;flowAnimation=1;" edge="1" parent="1" source="d78MfXPuP3HIufyHJjdj-17" target="gi6lmelZhgDVMPiIawq--1">
          <mxGeometry relative="1" as="geometry" />
        </mxCell>
        <mxCell id="5sOA5gd1idPIIyq4ogjT-1" value="application_1-publish-exception" style="sketch=0;points=[[0,0,0],[0.25,0,0],[0.5,0,0],[0.75,0,0],[1,0,0],[0,1,0],[0.25,1,0],[0.5,1,0],[0.75,1,0],[1,1,0],[0,0.25,0],[0,0.5,0],[0,0.75,0],[1,0.25,0],[1,0.5,0],[1,0.75,0]];outlineConnect=0;fontColor=#232F3E;fillColor=#8C4FFF;strokeColor=#ffffff;dashed=0;verticalLabelPosition=bottom;verticalAlign=top;align=center;html=1;fontSize=12;fontStyle=1;aspect=fixed;shape=mxgraph.aws4.resourceIcon;resIcon=mxgraph.aws4.managed_streaming_for_kafka;" vertex="1" parent="1">
          <mxGeometry x="201" y="548" width="78" height="78" as="geometry" />
        </mxCell>
        <mxCell id="5sOA5gd1idPIIyq4ogjT-2" value="application_2-publish-exception" style="sketch=0;points=[[0,0,0],[0.25,0,0],[0.5,0,0],[0.75,0,0],[1,0,0],[0,1,0],[0.25,1,0],[0.5,1,0],[0.75,1,0],[1,1,0],[0,0.25,0],[0,0.5,0],[0,0.75,0],[1,0.25,0],[1,0.5,0],[1,0.75,0]];outlineConnect=0;fontColor=#232F3E;fillColor=#8C4FFF;strokeColor=#ffffff;dashed=0;verticalLabelPosition=bottom;verticalAlign=top;align=center;html=1;fontSize=12;fontStyle=1;aspect=fixed;shape=mxgraph.aws4.resourceIcon;resIcon=mxgraph.aws4.managed_streaming_for_kafka;" vertex="1" parent="1">
          <mxGeometry x="201" y="658" width="78" height="78" as="geometry" />
        </mxCell>
        <mxCell id="5sOA5gd1idPIIyq4ogjT-3" value="" style="group;fontSize=15;" vertex="1" connectable="0" parent="1">
          <mxGeometry x="425" y="26" width="400" height="430" as="geometry" />
        </mxCell>
        <mxCell id="d78MfXPuP3HIufyHJjdj-17" value="Configs" style="rounded=1;whiteSpace=wrap;html=1;fontFamily=Helvetica;fontSize=15;labelBackgroundColor=none;fillColor=#fff2cc;strokeColor=#d6b656;labelPosition=center;verticalLabelPosition=top;align=center;verticalAlign=bottom;fontStyle=1" vertex="1" parent="5sOA5gd1idPIIyq4ogjT-3">
          <mxGeometry width="400" height="430" as="geometry" />
        </mxCell>
        <mxCell id="d78MfXPuP3HIufyHJjdj-7" style="rounded=0;orthogonalLoop=1;jettySize=auto;html=1;entryX=0;entryY=0.5;entryDx=0;entryDy=0;exitX=1;exitY=0.11;exitDx=0;exitDy=0;exitPerimeter=0;" edge="1" parent="5sOA5gd1idPIIyq4ogjT-3" source="vn9SD8QucBlFAOXTug7o-2" target="d78MfXPuP3HIufyHJjdj-5">
          <mxGeometry relative="1" as="geometry" />
        </mxCell>
        <mxCell id="vn9SD8QucBlFAOXTug7o-2" value="application_1-config-rules" style="outlineConnect=0;dashed=0;verticalLabelPosition=bottom;verticalAlign=top;align=center;html=1;shape=mxgraph.aws3.config_rule;fillColor=#759C3E;gradientColor=none;fontStyle=1" vertex="1" parent="5sOA5gd1idPIIyq4ogjT-3">
          <mxGeometry x="60" y="70" width="55.5" height="72" as="geometry" />
        </mxCell>
        <mxCell id="d78MfXPuP3HIufyHJjdj-4" value="Alerts" style="shape=tape;whiteSpace=wrap;html=1;size=0.2;aspect=fixed;fillColor=#fad9d5;strokeColor=#ae4132;fontStyle=1" vertex="1" parent="5sOA5gd1idPIIyq4ogjT-3">
          <mxGeometry x="250" y="61" width="120" height="70" as="geometry" />
        </mxCell>
        <mxCell id="d78MfXPuP3HIufyHJjdj-5" value="Topic" style="shape=document;whiteSpace=wrap;html=1;boundedLbl=1;aspect=fixed;fillColor=#d0cee2;strokeColor=#56517e;fontStyle=1" vertex="1" parent="5sOA5gd1idPIIyq4ogjT-3">
          <mxGeometry x="250" y="21" width="120" height="50" as="geometry" />
        </mxCell>
        <mxCell id="d78MfXPuP3HIufyHJjdj-6" value="Connectors" style="shape=tape;whiteSpace=wrap;html=1;size=0.2;aspect=fixed;fillColor=#fad7ac;strokeColor=#b46504;fontStyle=1" vertex="1" parent="5sOA5gd1idPIIyq4ogjT-3">
          <mxGeometry x="250" y="121" width="120" height="70" as="geometry" />
        </mxCell>
        <mxCell id="d78MfXPuP3HIufyHJjdj-8" style="rounded=0;orthogonalLoop=1;jettySize=auto;html=1;exitX=1;exitY=0.5;exitDx=0;exitDy=0;exitPerimeter=0;entryX=0;entryY=0.5;entryDx=0;entryDy=0;entryPerimeter=0;" edge="1" parent="5sOA5gd1idPIIyq4ogjT-3" source="vn9SD8QucBlFAOXTug7o-2" target="d78MfXPuP3HIufyHJjdj-4">
          <mxGeometry relative="1" as="geometry" />
        </mxCell>
        <mxCell id="d78MfXPuP3HIufyHJjdj-9" style="edgeStyle=none;rounded=0;orthogonalLoop=1;jettySize=auto;html=1;exitX=1;exitY=1;exitDx=0;exitDy=0;exitPerimeter=0;entryX=0;entryY=0.5;entryDx=0;entryDy=0;entryPerimeter=0;strokeColor=default;align=center;verticalAlign=middle;fontFamily=Helvetica;fontSize=11;fontColor=default;labelBackgroundColor=default;endArrow=classic;" edge="1" parent="5sOA5gd1idPIIyq4ogjT-3" source="vn9SD8QucBlFAOXTug7o-2" target="d78MfXPuP3HIufyHJjdj-6">
          <mxGeometry relative="1" as="geometry" />
        </mxCell>
        <mxCell id="d78MfXPuP3HIufyHJjdj-10" style="rounded=0;orthogonalLoop=1;jettySize=auto;html=1;entryX=0;entryY=0.5;entryDx=0;entryDy=0;exitX=1;exitY=0.11;exitDx=0;exitDy=0;exitPerimeter=0;" edge="1" parent="5sOA5gd1idPIIyq4ogjT-3" source="d78MfXPuP3HIufyHJjdj-11" target="d78MfXPuP3HIufyHJjdj-13">
          <mxGeometry relative="1" as="geometry" />
        </mxCell>
        <mxCell id="d78MfXPuP3HIufyHJjdj-11" value="application_2-config-rules" style="outlineConnect=0;dashed=0;verticalLabelPosition=bottom;verticalAlign=top;align=center;html=1;shape=mxgraph.aws3.config_rule;fillColor=#759C3E;gradientColor=none;fontStyle=1" vertex="1" parent="5sOA5gd1idPIIyq4ogjT-3">
          <mxGeometry x="60" y="299" width="55.5" height="72" as="geometry" />
        </mxCell>
        <mxCell id="d78MfXPuP3HIufyHJjdj-12" value="Alerts" style="shape=tape;whiteSpace=wrap;html=1;size=0.2;aspect=fixed;fillColor=#fad9d5;strokeColor=#ae4132;fontStyle=1" vertex="1" parent="5sOA5gd1idPIIyq4ogjT-3">
          <mxGeometry x="250" y="290" width="120" height="70" as="geometry" />
        </mxCell>
        <mxCell id="d78MfXPuP3HIufyHJjdj-13" value="Topic" style="shape=document;whiteSpace=wrap;html=1;boundedLbl=1;aspect=fixed;fillColor=#d0cee2;strokeColor=#56517e;fontStyle=1" vertex="1" parent="5sOA5gd1idPIIyq4ogjT-3">
          <mxGeometry x="250" y="250" width="120" height="50" as="geometry" />
        </mxCell>
        <mxCell id="d78MfXPuP3HIufyHJjdj-14" value="Connectors" style="shape=tape;whiteSpace=wrap;html=1;size=0.2;aspect=fixed;fillColor=#fad7ac;strokeColor=#b46504;fontStyle=1" vertex="1" parent="5sOA5gd1idPIIyq4ogjT-3">
          <mxGeometry x="250" y="350" width="120" height="70" as="geometry" />
        </mxCell>
        <mxCell id="d78MfXPuP3HIufyHJjdj-15" style="rounded=0;orthogonalLoop=1;jettySize=auto;html=1;exitX=1;exitY=0.5;exitDx=0;exitDy=0;exitPerimeter=0;entryX=0;entryY=0.5;entryDx=0;entryDy=0;entryPerimeter=0;" edge="1" parent="5sOA5gd1idPIIyq4ogjT-3" source="d78MfXPuP3HIufyHJjdj-11" target="d78MfXPuP3HIufyHJjdj-12">
          <mxGeometry relative="1" as="geometry" />
        </mxCell>
        <mxCell id="d78MfXPuP3HIufyHJjdj-16" style="edgeStyle=none;rounded=0;orthogonalLoop=1;jettySize=auto;html=1;exitX=1;exitY=1;exitDx=0;exitDy=0;exitPerimeter=0;entryX=0;entryY=0.5;entryDx=0;entryDy=0;entryPerimeter=0;strokeColor=default;align=center;verticalAlign=middle;fontFamily=Helvetica;fontSize=11;fontColor=default;labelBackgroundColor=default;endArrow=classic;" edge="1" parent="5sOA5gd1idPIIyq4ogjT-3" source="d78MfXPuP3HIufyHJjdj-11" target="d78MfXPuP3HIufyHJjdj-14">
          <mxGeometry relative="1" as="geometry" />
        </mxCell>
        <mxCell id="vJm2Hvg0PjwsrtIm3g5F-1" style="edgeStyle=none;rounded=0;orthogonalLoop=1;jettySize=auto;html=1;exitX=1;exitY=0.5;exitDx=0;exitDy=0;entryX=0.005;entryY=0.63;entryDx=0;entryDy=0;entryPerimeter=0;strokeColor=default;align=center;verticalAlign=middle;fontFamily=Helvetica;fontSize=11;fontColor=default;labelBackgroundColor=default;endArrow=none;startArrow=classic;startFill=1;endFill=0;flowAnimation=1;" edge="1" parent="1" source="5sOA5gd1idPIIyq4ogjT-21" target="gi6lmelZhgDVMPiIawq--1">
          <mxGeometry relative="1" as="geometry">
            <mxPoint x="635" y="466" as="sourcePoint" />
            <mxPoint x="635" y="599" as="targetPoint" />
          </mxGeometry>
        </mxCell>
      </root>
    </mxGraphModel>
  </diagram>
</mxfile>
